<?xml version="1.0" encoding="utf-8"?>
<COLLADA xmlns="http://www.collada.org/2005/11/COLLADASchema" version="1.4.1" xmlns:xsi="http://www.w3.org/2001/XMLSchema-instance">
  <asset>
    <contributor>
      <author>Blender User</author>
      <authoring_tool>Blender 2.79.0 commit date:2018-03-22, commit time:14:10, hash:f4dc9f9d68b</authoring_tool>
    </contributor>
    <created>2024-08-28T21:55:48</created>
    <modified>2024-08-28T21:55:48</modified>
    <unit name="meter" meter="1"/>
    <up_axis>Z_UP</up_axis>
  </asset>
  <library_images/>
  <library_effects>
    <effect id="Corrupted_Save-effect">
      <profile_COMMON>
        <technique sid="common">
          <phong>
            <emission>
              <color sid="emission">0 0 0 1</color>
            </emission>
            <ambient>
              <color sid="ambient">0 0 0 1</color>
            </ambient>
            <diffuse>
              <color sid="diffuse">0.8 0.8 0.8 1</color>
            </diffuse>
            <specular>
              <color sid="specular">0.25 0.25 0.25 1</color>
            </specular>
            <shininess>
              <float sid="shininess">50</float>
            </shininess>
            <index_of_refraction>
              <float sid="index_of_refraction">1</float>
            </index_of_refraction>
          </phong>
        </technique>
      </profile_COMMON>
    </effect>
  </library_effects>
  <library_materials>
    <material id="Corrupted_Save-material" name="Corrupted_Save">
      <instance_effect url="#Corrupted_Save-effect"/>
    </material>
  </library_materials>
  <library_geometries>
    <geometry id="Corrupted_Save-mesh" name="Corrupted_Save">
      <mesh>
        <source id="Corrupted_Save-mesh-positions">
          <float_array id="Corrupted_Save-mesh-positions-array" count="108">-1.040527 1.040527 -2.081055 -1.040527 -1.040527 0 -1.040527 1.040527 0 -1.040527 -1.040527 0 -1.040527 1.040527 -2.081055 -1.040527 -1.040527 -2.081055 1.040527 1.040527 -2.081055 -1.040527 1.040527 0 1.040527 1.040527 0 -1.040527 1.040527 0 1.040527 1.040527 -2.081055 -1.040527 1.040527 -2.081055 1.040527 -1.040527 -2.081055 -1.040527 1.040527 -2.081055 1.040527 1.040527 -2.081055 -1.040527 1.040527 -2.081055 1.040527 -1.040527 -2.081055 -1.040527 -1.040527 -2.081055 1.040527 -1.040527 0 -1.040527 -1.040527 -2.081055 1.040527 -1.040527 -2.081055 -1.040527 -1.040527 -2.081055 1.040527 -1.040527 0 -1.040527 -1.040527 0 1.040527 1.040527 0 -1.040527 -1.040527 0 1.040527 -1.040527 0 -1.040527 -1.040527 0 1.040527 1.040527 0 -1.040527 1.040527 0 1.040527 -1.040527 0 1.040527 1.040527 -2.081055 1.040527 1.040527 0 1.040527 1.040527 -2.081055 1.040527 -1.040527 0 1.040527 -1.040527 -2.081055</float_array>
          <technique_common>
            <accessor source="#Corrupted_Save-mesh-positions-array" count="36" stride="3">
              <param name="X" type="float"/>
              <param name="Y" type="float"/>
              <param name="Z" type="float"/>
            </accessor>
          </technique_common>
        </source>
        <source id="Corrupted_Save-mesh-normals">
          <float_array id="Corrupted_Save-mesh-normals-array" count="18">-1 0 0 0 1 0 0 0 -1 0 -1 0 0 0 1 1 0 0</float_array>
          <technique_common>
            <accessor source="#Corrupted_Save-mesh-normals-array" count="6" stride="3">
              <param name="X" type="float"/>
              <param name="Y" type="float"/>
              <param name="Z" type="float"/>
            </accessor>
          </technique_common>
        </source>
        <source id="Corrupted_Save-mesh-map-0">
          <float_array id="Corrupted_Save-mesh-map-0-array" count="72">0 0 0 0 0 0 0 0 0 0 0 0 0 0 0 0 0 0 0 0 0 0 0 0 0 0 0 0 0 0 0 0 0 0 0 0 0 0 0 0 0 0 0 0 0 0 0 0 0 0 0 0 0 0 0 0 0 0 0 0 0 0 0 0 0 0 0 0 0 0 0 0</float_array>
          <technique_common>
            <accessor source="#Corrupted_Save-mesh-map-0-array" count="36" stride="2">
              <param name="S" type="float"/>
              <param name="T" type="float"/>
            </accessor>
          </technique_common>
        </source>
        <source id="Corrupted_Save-mesh-colors-COLOR_0" name="COLOR_0">
          <float_array id="Corrupted_Save-mesh-colors-COLOR_0-array" count="108">0.04705882 0.04705882 0.2156863 0.04705882 0.04705882 0.2156863 0.04705882 0.04705882 0.2156863 0.04705882 0.04705882 0.2156863 0.04705882 0.04705882 0.2156863 0.04705882 0.04705882 0.2156863 0.04705882 0.04705882 0.2156863 0.04705882 0.04705882 0.2156863 0.04705882 0.04705882 0.2156863 0.04705882 0.04705882 0.2156863 0.04705882 0.04705882 0.2156863 0.04705882 0.04705882 0.2156863 0.04705882 0.04705882 0.2156863 0.04705882 0.04705882 0.2156863 0.04705882 0.04705882 0.2156863 0.04705882 0.04705882 0.2156863 0.04705882 0.04705882 0.2156863 0.04705882 0.04705882 0.2156863 0.04705882 0.04705882 0.2156863 0.04705882 0.04705882 0.2156863 0.04705882 0.04705882 0.2156863 0.04705882 0.04705882 0.2156863 0.04705882 0.04705882 0.2156863 0.04705882 0.04705882 0.2156863 0.04705882 0.04705882 0.2156863 0.04705882 0.04705882 0.2156863 0.04705882 0.04705882 0.2156863 0.04705882 0.04705882 0.2156863 0.04705882 0.04705882 0.2156863 0.04705882 0.04705882 0.2156863 0.04705882 0.04705882 0.2156863 0.04705882 0.04705882 0.2156863 0.04705882 0.04705882 0.2156863 0.04705882 0.04705882 0.2156863 0.04705882 0.04705882 0.2156863 0.04705882 0.04705882 0.2156863</float_array>
          <technique_common>
            <accessor source="#Corrupted_Save-mesh-colors-COLOR_0-array" count="36" stride="3">
              <param name="R" type="float"/>
              <param name="G" type="float"/>
              <param name="B" type="float"/>
            </accessor>
          </technique_common>
        </source>
        <vertices id="Corrupted_Save-mesh-vertices">
          <input semantic="POSITION" source="#Corrupted_Save-mesh-positions"/>
        </vertices>
        <triangles material="Corrupted_Save-material" count="12">
          <input semantic="VERTEX" source="#Corrupted_Save-mesh-vertices" offset="0"/>
          <input semantic="NORMAL" source="#Corrupted_Save-mesh-normals" offset="1"/>
          <input semantic="TEXCOORD" source="#Corrupted_Save-mesh-map-0" offset="2" set="0"/>
          <input semantic="COLOR" source="#Corrupted_Save-mesh-colors-COLOR_0" offset="3" set="0"/>
          <p>0 0 0 0 1 0 1 1 2 0 2 2 3 0 3 3 4 0 4 4 5 0 5 5 6 1 6 6 7 1 7 7 8 1 8 8 9 1 9 9 10 1 10 10 11 1 11 11 12 2 12 12 13 2 13 13 14 2 14 14 15 2 15 15 16 2 16 16 17 2 17 17 18 3 18 18 19 3 19 19 20 3 20 20 21 3 21 21 22 3 22 22 23 3 23 23 24 4 24 24 25 4 25 25 26 4 26 26 27 4 27 27 28 4 28 28 29 4 29 29 30 5 30 30 31 5 31 31 32 5 32 32 33 5 33 33 34 5 34 34 35 5 35 35</p>
        </triangles>
      </mesh>
    </geometry>
  </library_geometries>
  <library_controllers/>
  <library_visual_scenes>
    <visual_scene id="Scene" name="Scene">
      <node id="Corrupted_Save" name="Corrupted_Save" type="NODE">
        <matrix sid="transform">1 0 0 0 0 -1 8.74228e-8 0 0 -8.74228e-8 -1 0 0 0 0 1</matrix>
        <instance_geometry url="#Corrupted_Save-mesh" name="Corrupted_Save">
          <bind_material>
            <technique_common>
              <instance_material symbol="Corrupted_Save-material" target="#Corrupted_Save-material"/>
            </technique_common>
          </bind_material>
        </instance_geometry>
      </node>
    </visual_scene>
  </library_visual_scenes>
  <scene>
    <instance_visual_scene url="#Scene"/>
  </scene>
</COLLADA>